<svg width="48" height="48" viewBox="0 0 48 48" fill="none" xmlns="http://www.w3.org/2000/svg">
<rect width="48" height="48" fill="#E6E7EA"/>
<path d="M26.4 16H35.28C35.6777 16 36 16.3224 36 16.72V32.08C36 32.4777 35.6777 32.8 35.28 32.8H26.4M26.4 16V32.8M26.4 16H21.6M26.4 32.8H21.6M21.6 16H12.72C12.3224 16 12 16.3224 12 16.72V32.08C12 32.4777 12.3224 32.8 12.72 32.8H21.6M21.6 16V32.8" stroke="black" stroke-width="2" stroke-linecap="round" stroke-linejoin="round"/>
<path d="M18 21.8184C18 21.3215 17.5042 20.9803 17.1007 21.2703C16.1919 21.9238 15.6 22.9905 15.6 24.1953C15.6 25.4001 16.1919 26.4667 17.1007 27.1201C17.5042 27.4102 18 27.0691 18 26.5722C18 25.0674 18 23.6521 18 21.8184Z" fill="black"/>
<path d="M30 21.8184C30 21.3215 30.4958 20.9803 30.8993 21.2703C31.8082 21.9238 32.4 22.9905 32.4 24.1953C32.4 25.4001 31.8082 26.4667 30.8993 27.1201C30.4958 27.4102 30 27.0691 30 26.5722C30 25.0674 30 23.6521 30 21.8184Z" fill="black"/>
</svg>
