<svg width="48" height="48" viewBox="0 0 48 48" fill="none" xmlns="http://www.w3.org/2000/svg">
<rect width="48" height="48" fill="#E6E7EA"/>
<path d="M31.2314 18.2028C31.1593 18.1908 31.0751 18.1908 31.003 18.2028C29.3441 18.1427 28.0218 16.7844 28.0218 15.1014C28.0218 13.3824 29.4042 12 31.1232 12C32.8422 12 34.2246 13.3944 34.2246 15.1014C34.2126 16.7844 32.8903 18.1427 31.2314 18.2028Z" stroke="#292D32" stroke-width="2" stroke-linecap="round" stroke-linejoin="round"/>
<path d="M29.9925 26.954C31.6394 27.2305 33.4546 26.942 34.7288 26.0885C36.4238 24.9585 36.4238 23.1073 34.7288 21.9773C33.4425 21.1238 31.6033 20.8353 29.9565 21.1238" stroke="#292D32" stroke-width="2" stroke-linecap="round" stroke-linejoin="round"/>
<path d="M16.7682 18.2028C16.8403 18.1908 16.9245 18.1908 16.9966 18.2028C18.6555 18.1427 19.9778 16.7844 19.9778 15.1014C19.9778 13.3824 18.5954 12 16.8764 12C15.1574 12 13.775 13.3944 13.775 15.1014C13.787 16.7844 15.1093 18.1427 16.7682 18.2028Z" stroke="#292D32" stroke-width="2" stroke-linecap="round" stroke-linejoin="round"/>
<path d="M18.0075 26.954C16.3606 27.2305 14.5454 26.942 13.2712 26.0885C11.5763 24.9585 11.5763 23.1073 13.2712 21.9773C14.5575 21.1238 16.3967 20.8353 18.0436 21.1238" stroke="#292D32" stroke-width="2" stroke-linecap="round" stroke-linejoin="round"/>
<path d="M24.0188 27.1826C23.9467 27.1705 23.8625 27.1705 23.7904 27.1826C22.1315 27.1224 20.8092 25.7641 20.8092 24.0811C20.8092 22.3621 22.1916 20.9797 23.9106 20.9797C25.6296 20.9797 27.012 22.3741 27.012 24.0811C27 25.7641 25.6777 27.1345 24.0188 27.1826Z" stroke="#292D32" stroke-width="2" stroke-linecap="round" stroke-linejoin="round"/>
<path d="M27.5176 30.969C25.6063 29.6947 22.4448 29.6947 20.5214 30.969C18.8264 32.099 18.8264 33.9502 20.5214 35.0802C22.4448 36.3664 25.5943 36.3664 27.5176 35.0802" stroke="#292D32" stroke-width="2" stroke-linecap="round" stroke-linejoin="round"/>
</svg>
