<svg width="48" height="48" viewBox="0 0 48 48" fill="none" xmlns="http://www.w3.org/2000/svg">
<rect width="48" height="48" fill="#E6E7EA"/>
<path d="M33.6 22.6C33.6 17.2981 29.302 13 24 13C18.6981 13 14.4 17.2981 14.4 22.6" stroke="black" stroke-width="2" stroke-linecap="round" stroke-linejoin="round"/>
<path d="M12 27.926V25.6739C12 24.5725 12.7495 23.6126 13.8179 23.3455L15.9054 22.8236C16.3598 22.71 16.8 23.0537 16.8 23.5221V30.0777C16.8 30.5462 16.3598 30.8899 15.9054 30.7763L13.8179 30.2544C12.7495 29.9873 12 29.0274 12 27.926Z" stroke="black" stroke-width="2"/>
<path d="M36 27.926V25.6739C36 24.5725 35.2505 23.6126 34.1821 23.3455L32.0946 22.8236C31.6402 22.71 31.2 23.0537 31.2 23.5221V30.0777C31.2 30.5462 31.6402 30.8899 32.0946 30.7763L34.1821 30.2544C35.2505 29.9873 36 29.0274 36 27.926Z" stroke="black" stroke-width="2"/>
<path d="M33.6 31V31.6C33.6 32.9255 32.5255 34 31.2 34H27" stroke="black" stroke-width="2"/>
<path d="M25.8 35.8H22.2C21.2059 35.8 20.4 34.9941 20.4 34C20.4 33.0059 21.2059 32.2 22.2 32.2H25.8C26.7941 32.2 27.6 33.0059 27.6 34C27.6 34.9941 26.7941 35.8 25.8 35.8Z" stroke="black" stroke-width="2"/>
</svg>
