<svg width="48" height="48" viewBox="0 0 48 48" fill="none" xmlns="http://www.w3.org/2000/svg">
<rect width="48" height="48" fill="#E6E7EA"/>
<path d="M32.3828 20.3827C32.3828 22.1191 31.8678 23.7119 30.9817 25.0411C29.6883 26.9572 27.6405 28.3104 25.2574 28.6577C24.8503 28.7295 24.4311 28.7655 24 28.7655C23.5689 28.7655 23.1498 28.7295 22.7426 28.6577C20.3595 28.3104 18.3118 26.9572 17.0184 25.0411C16.1322 23.7119 15.6173 22.1191 15.6173 20.3827C15.6173 15.7483 19.3656 12 24 12C28.6345 12 32.3828 15.7483 32.3828 20.3827Z" stroke="#292D32" stroke-width="2" stroke-linecap="round" stroke-linejoin="round"/>
<path d="M35.0772 31.7234L33.1013 32.1904C32.6582 32.2982 32.3109 32.6335 32.2151 33.0766L31.796 34.8369C31.5684 35.795 30.3469 36.0824 29.7123 35.3279L24 28.7655L18.2877 35.3399C17.6531 36.0943 16.4316 35.8069 16.204 34.8489L15.7849 33.0885C15.6771 32.6455 15.3298 32.2982 14.8987 32.2024L12.9228 31.7353C12.0127 31.5198 11.6893 30.3821 12.348 29.7235L17.0184 25.0531C18.3117 26.9692 20.3595 28.3224 22.7426 28.6696C23.1498 28.7415 23.5689 28.7774 24 28.7774C24.4311 28.7774 24.8503 28.7415 25.2574 28.6696C27.6405 28.3224 29.6883 26.9692 30.9816 25.0531L35.652 29.7235C36.3107 30.3701 35.9873 31.5078 35.0772 31.7234Z" stroke="#292D32" stroke-width="2" stroke-linecap="round" stroke-linejoin="round"/>
<path d="M24.6946 16.7662L25.4011 18.1792C25.4969 18.3708 25.7484 18.5625 25.9759 18.5984L27.2573 18.8139C28.0716 18.9457 28.2632 19.5444 27.6764 20.1312L26.6825 21.1252C26.5148 21.2928 26.419 21.6162 26.4789 21.8557L26.7663 23.0891C26.9939 24.0591 26.4789 24.4423 25.6167 23.9274L24.4192 23.2209C24.2036 23.0891 23.8443 23.0891 23.6288 23.2209L22.4313 23.9274C21.569 24.4304 21.0541 24.0591 21.2816 23.0891L21.569 21.8557C21.6169 21.6281 21.5331 21.2928 21.3654 21.1252L20.3715 20.1312C19.7847 19.5444 19.9763 18.9576 20.7906 18.8139L22.072 18.5984C22.2876 18.5625 22.539 18.3708 22.6348 18.1792L23.3414 16.7662C23.6887 15.9997 24.3114 15.9997 24.6946 16.7662Z" stroke="#292D32" stroke-width="2" stroke-linecap="round" stroke-linejoin="round"/>
</svg>
